
<svg 
 width="118px" height="30" viewBox="0 0 300.000000 62.000000"
 preserveAspectRatio="xMidYMid meet">

<g transform="translate(0.000000,62.000000) scale(0.100000,-0.100000)"
fill="#000000" stroke="none">
<path d="M385 489 c-44 -5 -88 -10 -97 -11 -15 -2 -36 -63 -25 -75 3 -2 20 14
38 36 30 38 36 41 81 41 26 0 48 -3 48 -7 0 -4 -21 -28 -46 -54 -38 -39 -43
-48 -32 -60 8 -8 25 -32 38 -54 45 -73 60 -85 104 -84 23 0 34 3 26 6 -8 3
-23 12 -32 20 -9 8 -22 12 -27 8 -8 -4 -11 31 -11 110 l0 116 88 -2 c94 -2
116 -8 133 -41 10 -18 9 -20 -4 -15 -11 4 -14 2 -10 -8 3 -8 9 -12 14 -9 5 3
9 0 9 -5 0 -6 -9 -11 -20 -11 -11 0 -20 -5 -20 -11 0 -6 9 -8 23 -3 21 7 22 6
4 -14 -18 -19 -18 -21 -1 -41 16 -18 41 -20 30 -2 -3 3 -6 40 -7 81 l-2 75 31
-3 c16 -2 33 2 37 8 4 7 -15 10 -62 8 -37 -1 -104 0 -148 3 -44 3 -116 2 -160
-2z m45 -111 c0 -13 -3 -33 -6 -46 -6 -22 -8 -22 -25 -6 -22 20 -24 45 -7 62
19 19 38 14 38 -10z"/>
<path d="M820 484 c-19 -8 -38 -20 -42 -27 -9 -14 -10 -182 -2 -214 7 -25 49
-32 57 -10 4 9 6 8 6 -2 2 -34 76 -56 87 -26 4 11 11 12 23 5 12 -6 24 -5 38
5 18 13 22 13 33 0 14 -16 56 -20 64 -6 3 5 -6 8 -19 8 -34 0 -53 19 -48 46 3
16 0 24 -10 24 -9 0 -12 -7 -10 -17 3 -11 -5 -24 -18 -34 -30 -20 -36 -20 -42
2 -4 15 -6 14 -12 -5 -9 -29 -61 -29 -69 0 -4 15 -10 18 -30 13 -19 -5 -28 -1
-36 13 -5 11 -10 24 -10 30 0 18 63 12 104 -9 41 -21 59 -19 50 5 -4 8 -29 22
-57 30 -67 20 -87 39 -87 86 0 29 6 42 26 58 36 29 121 29 156 1 28 -21 43
-59 25 -61 -30 -3 -73 4 -81 12 -15 14 -46 11 -46 -6 0 -8 12 -17 28 -21 93
-20 117 -39 91 -71 -12 -15 -12 -16 4 -10 10 4 21 7 23 7 7 0 2 113 -6 145 -4
17 -8 27 -9 23 0 -3 -22 0 -48 8 -58 18 -89 17 -133 -2z"/>
<path d="M2260 488 c-10 -4 -26 -19 -36 -33 l-17 -26 -18 31 c-17 28 -23 30
-71 28 l-53 -2 52 -3 c48 -4 53 -7 59 -31 3 -15 10 -40 15 -56 5 -16 9 -40 9
-54 0 -43 14 -14 31 61 l15 72 162 3 162 2 0 -35 0 -35 -60 0 c-33 0 -60 -4
-60 -10 0 -5 -13 -10 -29 -10 -17 0 -32 -4 -35 -8 -3 -5 33 -6 80 -4 l84 5 0
-35 0 -35 -50 5 c-46 4 -50 3 -50 -17 0 -17 6 -21 38 -22 20 -1 45 0 56 1 22
2 36 -16 36 -47 0 -17 8 -24 35 -29 20 -3 37 -5 39 -3 1 2 -1 18 -4 34 l-7 30
-12 -29 c-10 -25 -26 -29 -26 -8 0 4 -4 13 -9 21 -5 7 -11 62 -14 122 l-5 109
41 0 c39 0 44 -3 77 -52 19 -29 35 -61 35 -70 0 -10 5 -18 11 -18 8 0 10 15 5
46 -3 26 -6 59 -7 73 l0 26 -10 -24 -9 -23 -26 26 c-15 14 -32 27 -38 27 -49
5 -381 2 -396 -3z"/>
<path d="M172 478 c-7 -7 -12 -42 -12 -89 0 -99 8 -139 26 -132 8 3 14 12 14
20 0 8 -4 11 -10 8 -5 -3 -10 -3 -10 2 0 4 -1 49 -3 98 l-1 90 44 6 45 6 -40
1 c-23 1 -46 -3 -53 -10z"/>
<path d="M1258 483 l93 -4 30 -47 c16 -26 32 -57 35 -69 10 -39 19 -17 16 36
-3 43 -6 50 -18 40 -11 -9 -19 -4 -40 20 -26 31 -26 31 -117 29 l-92 -2 93 -3z"/>
<path d="M2788 483 l42 -4 1 -117 c1 -84 3 -107 9 -82 11 45 10 170 -2 193 -6
12 -20 17 -51 15 l-42 -1 43 -4z"/>
<path d="M1857 453 c-8 -16 -25 -58 -38 -95 -21 -61 -39 -87 -39 -57 0 22 -64
163 -68 150 -2 -7 0 -23 6 -34 5 -12 23 -57 38 -99 16 -43 32 -78 35 -78 4 0
19 35 34 78 54 157 63 198 32 135z"/>
<path d="M1157 440 c-7 -31 -37 -43 -37 -14 0 8 -4 12 -10 9 -5 -3 -10 -15
-10 -26 0 -16 7 -19 39 -19 l40 0 -6 38 c-7 48 -9 49 -16 12z"/>
<path d="M1576 428 c-9 -24 -22 -61 -30 -83 l-15 -40 0 74 c-1 41 -3 72 -5 70
-7 -7 -15 -167 -9 -190 5 -16 14 0 39 67 34 91 49 144 41 144 -3 0 -12 -19
-21 -42z"/>
<path d="M2046 439 c-3 -19 -7 -45 -9 -59 l-2 -25 -15 27 c-13 22 -17 24 -28
12 -10 -11 -10 -14 1 -14 8 0 23 -29 36 -70 13 -39 25 -69 27 -67 6 6 6 218 0
224 -2 3 -7 -10 -10 -28z"/>
<path d="M1042 420 c2 -38 11 -50 22 -31 4 5 0 12 -6 14 -10 4 -10 6 0 6 9 1
10 6 2 20 -7 14 -6 21 3 24 7 3 4 6 -6 6 -15 1 -17 -6 -15 -39z"/>
<path d="M1259 369 c-1 -46 0 -99 1 -116 1 -29 -2 -33 -23 -33 -14 0 -28 6
-30 13 -3 7 -6 5 -6 -5 -1 -10 -7 -18 -13 -18 -7 -1 0 -8 15 -16 27 -15 30
-14 51 5 15 14 26 17 36 11 27 -17 47 -12 45 13 -4 39 -7 43 -13 19 -6 -21
-27 -32 -27 -14 0 4 -4 14 -9 22 -6 8 -12 55 -14 105 -2 49 -6 92 -8 94 -2 2
-4 -34 -5 -80z"/>
<path d="M2351 405 c-2 -27 -2 -68 -1 -90 l2 -40 -21 24 c-12 13 -24 21 -27
18 -4 -4 7 -18 23 -33 22 -19 29 -32 25 -50 -3 -16 -10 -23 -18 -20 -8 3 -24
1 -36 -3 -20 -8 -21 -10 -6 -16 10 -4 35 0 55 8 21 9 33 16 27 16 -13 1 -13
149 0 169 4 7 3 12 -3 12 -5 0 -12 12 -14 28 -2 17 -5 9 -6 -23z"/>
<path d="M827 412 c-3 -15 -2 -33 3 -41 5 -9 9 -1 12 23 5 44 -7 59 -15 18z"/>
<path d="M1466 408 c21 -30 29 -34 39 -18 3 6 1 10 -5 10 -6 0 -8 5 -4 12 5 7
2 9 -8 5 -9 -3 -21 0 -28 6 -7 7 -5 0 6 -15z"/>
<path d="M1896 416 c3 -9 10 -16 15 -16 5 0 9 -9 9 -20 0 -11 -4 -20 -8 -20
-4 0 -8 -12 -7 -27 0 -22 5 -29 23 -31 19 -3 23 0 18 15 -21 72 -17 88 14 61
12 -11 12 -10 1 5 -7 9 -20 17 -28 17 -8 0 -11 5 -7 13 4 6 4 9 -1 5 -4 -4
-14 -3 -22 4 -11 8 -12 7 -7 -6z"/>
<path d="M2139 413 c-2 -18 -2 -35 0 -110 1 -25 7 -48 16 -55 9 -7 25 -22 35
-32 11 -11 20 -15 20 -8 0 7 -9 21 -20 32 -11 11 -21 28 -23 38 -1 9 -6 23
-11 31 -9 15 -10 96 -1 111 4 6 1 10 -4 10 -6 0 -12 -8 -12 -17z"/>
<path d="M532 388 c2 -19 8 -22 33 -20 36 4 39 7 32 27 -4 9 -19 15 -37 15
-27 0 -31 -3 -28 -22z"/>
<path d="M223 392 c-27 -4 -31 -21 -5 -24 32 -2 37 -4 50 -12 11 -7 12 -4 3
12 -14 26 -20 29 -48 24z"/>
<path d="M1642 360 c-18 -49 -15 -60 13 -60 23 0 25 3 19 28 -16 64 -20 68
-32 32z"/>
<path d="M2249 369 c-11 -7 -11 -9 4 -9 9 0 17 -7 17 -15 0 -8 -8 -15 -17 -15
-14 0 -15 -2 -5 -9 19 -11 5 -84 -14 -77 -7 3 -16 1 -19 -3 -2 -5 4 -11 15
-14 11 -3 23 -1 26 4 3 5 9 7 14 4 8 -5 10 13 10 83 0 20 4 31 10 27 5 -3 10
-2 10 2 0 16 -36 31 -51 22z"/>
<path d="M1345 357 c-12 -10 -14 -16 -7 -21 7 -4 12 -22 12 -40 0 -28 4 -34
25 -38 32 -7 32 7 0 55 -22 31 -23 38 -11 43 8 3 20 3 26 -1 5 -3 10 -1 10 4
0 15 -33 14 -55 -2z"/>
<path d="M2663 362 c-8 -5 -8 -23 2 -72 7 -36 13 -57 14 -47 1 14 6 17 22 12
21 -7 21 -6 -5 40 -31 57 -33 69 -6 62 11 -3 18 -1 14 4 -6 11 -25 11 -41 1z"/>
<path d="M266 305 c-3 -8 -1 -25 4 -37 5 -13 9 -19 9 -14 1 6 14 -3 31 -19 16
-16 33 -25 37 -22 3 4 2 7 -4 7 -5 0 -20 23 -33 50 -25 52 -34 60 -44 35z"/>
<path d="M542 308 c-14 -14 -16 -44 -3 -53 5 -3 13 0 16 6 4 5 13 8 20 5 7 -2
16 2 19 10 3 9 -2 17 -12 21 -9 4 -20 10 -23 15 -3 4 -10 3 -17 -4z"/>
<path d="M605 298 c10 -32 21 -42 39 -35 23 9 20 27 -4 27 -11 0 -20 7 -20 15
0 8 -5 15 -11 15 -6 0 -8 -9 -4 -22z"/>
<path d="M1100 304 c0 -9 -8 -23 -17 -31 -17 -14 -17 -14 2 -8 45 15 75 17 75
6 0 -6 5 -11 10 -11 6 0 10 14 10 30 0 28 -2 30 -40 30 -30 0 -40 -4 -40 -16z"/>
<path d="M1417 298 c-8 -28 3 -45 15 -24 5 9 15 14 21 10 7 -3 4 1 -5 9 -10 8
-15 17 -11 20 3 4 2 7 -4 7 -6 0 -13 -10 -16 -22z"/>
<path d="M2732 288 c-2 -29 0 -31 12 -16 7 10 16 15 19 11 4 -3 7 -3 7 1 0 7
-26 36 -32 36 -2 0 -5 -15 -6 -32z"/>
<path d="M1690 293 c0 -7 5 -13 11 -13 6 0 9 -7 6 -15 -4 -8 -2 -17 2 -20 10
-6 21 18 21 44 0 10 -8 17 -20 17 -11 0 -20 -6 -20 -13z"/>
<path d="M1978 302 c-20 -4 -25 -22 -7 -22 6 0 9 -7 6 -15 -4 -8 -2 -17 3 -20
10 -6 25 37 18 52 -1 5 -11 7 -20 5z"/>
<path d="M217 283 c-4 -3 -7 -19 -7 -35 0 -20 5 -28 18 -27 9 0 12 3 6 5 -6 2
-8 18 -6 34 4 30 1 36 -11 23z"/>
<path d="M1560 252 c0 -6 6 -12 13 -15 19 -7 1 -19 -27 -19 -14 0 -23 -4 -20
-9 7 -12 74 -8 112 8 18 7 37 11 42 8 6 -4 10 0 10 8 0 15 -33 25 -61 19 -10
-2 -20 -13 -24 -25 -7 -22 -7 -22 -14 2 -6 24 -31 42 -31 23z"/>
<path d="M1844 244 c8 -26 -8 -32 -76 -28 -54 3 -61 -6 -21 -27 20 -11 27 -11
30 -1 3 7 23 12 49 12 25 0 54 5 64 10 10 6 30 11 44 12 32 3 34 24 4 30 -36
6 -55 -1 -63 -25 -7 -21 -7 -21 -12 -2 -3 11 -10 25 -15 30 -7 7 -8 3 -4 -11z"/>
<path d="M370 233 c0 -5 9 -19 20 -33 18 -24 20 -24 37 -7 16 16 16 17 -5 17
-13 0 -25 7 -28 15 -6 15 -24 21 -24 8z"/>
<path d="M2080 221 c0 -5 -20 -8 -45 -6 -51 3 -57 -5 -19 -25 18 -10 27 -11
32 -3 4 6 19 13 34 15 22 2 24 5 12 16 -8 7 -14 8 -14 3z"/>
<path d="M2521 225 c-1 -7 -22 -10 -51 -9 -27 2 -50 -1 -50 -5 0 -12 85 -20
122 -11 23 5 26 8 11 9 -12 1 -24 7 -26 14 -3 6 -6 7 -6 2z"/>
</g>
</svg>
